<svg id="logo" width="216" height="118" viewBox="0 0 216 118" fill="none" xmlns="http://www.w3.org/2000/svg">
<g clip-path="url(#clip0)">
<path d="M152.674 26.2454L113.445 3.61176C110.043 1.64895 105.852 1.64896 102.45 3.61177L63.2212 26.2454C59.8163 28.2099 57.7185 31.8422 57.7185 35.7733V81.0287C57.7185 84.9598 59.8163 88.5921 63.2213 90.5566L102.45 113.19C105.852 115.153 110.043 115.153 113.445 113.19L152.674 90.5566C156.079 88.5921 158.177 84.9598 158.177 81.0287V35.7733C158.177 31.8422 156.079 28.2099 152.674 26.2454Z" fill="url(#paint0_linear)" stroke="#748590" stroke-width="2"/>
<rect x="70.0042" y="37.2944" width="75.8868" height="42.2132" rx="3.5" stroke="#BBC4CB" stroke-width="3"/>
<line x1="114.328" y1="91.2025" x2="101.567" y2="91.2025" stroke="#BBC4CB" stroke-width="3"/>
<line x1="107.318" y1="90.8646" x2="107.318" y2="83.3235" stroke="#BBC4CB" stroke-width="3"/>
<path d="M117.121 39.9847C117.016 40.3804 116.901 40.7938 116.866 40.9037L116.809 41.106L116.532 41.1368C116.383 41.1544 116.128 41.1983 115.965 41.2335C115.803 41.2731 115.649 41.2907 115.627 41.2775C115.605 41.2599 115.363 40.9301 115.095 40.5343C114.822 40.143 114.585 39.8044 114.567 39.7868C114.545 39.7604 113.411 40.2397 113.35 40.3013C113.341 40.3057 113.446 40.7234 113.583 41.2247C113.715 41.7304 113.82 42.1438 113.811 42.1482C113.697 42.2317 113.222 42.6099 113.077 42.7374L112.879 42.9089L112.031 42.5L111.183 42.091L110.809 42.6187C110.602 42.9089 110.435 43.1596 110.435 43.1772C110.435 43.1948 110.734 43.5026 111.095 43.8676L111.754 44.5272L111.609 44.879C111.526 45.0725 111.438 45.3231 111.407 45.4374C111.341 45.6793 111.398 45.6617 110.391 45.7365C110.066 45.7628 109.715 45.7936 109.618 45.8068L109.438 45.8288L109.38 46.462C109.35 46.8138 109.332 47.1128 109.35 47.126C109.363 47.1392 109.758 47.258 110.229 47.3855C110.699 47.513 111.108 47.6273 111.134 47.6449C111.161 47.6625 111.183 47.7505 111.183 47.8384C111.183 47.9264 111.222 48.177 111.266 48.3969C111.31 48.6124 111.341 48.8058 111.332 48.8234C111.319 48.841 110.976 49.0873 110.567 49.3687C110.154 49.6501 109.82 49.9008 109.82 49.9228C109.82 49.9712 110.299 51.0221 110.339 51.0661C110.365 51.0925 111.684 50.7759 112.088 50.644C112.163 50.622 112.22 50.6703 112.427 50.9342C112.559 51.1101 112.73 51.3124 112.805 51.3827C112.879 51.4575 112.941 51.5278 112.941 51.5454C112.941 51.563 112.761 51.9588 112.545 52.4205C112.326 52.8866 112.15 53.2736 112.159 53.278C112.268 53.3747 113.192 54.0036 113.227 54.0036C113.253 54.0036 113.565 53.7089 113.926 53.3484L114.581 52.6931L114.805 52.7943C114.928 52.8471 115.17 52.935 115.337 52.9922C115.508 53.0449 115.658 53.1065 115.679 53.1197C115.697 53.1373 115.741 53.555 115.781 54.0519C115.82 54.5445 115.864 54.9622 115.882 54.9798C115.895 54.9974 116.194 55.037 116.541 55.0677C117.055 55.1161 117.174 55.1205 117.192 55.0721C117.205 55.0414 117.319 54.6324 117.447 54.1663L117.675 53.322L117.825 53.2912C117.908 53.2736 118.176 53.2252 118.427 53.1813L118.875 53.0977L119.416 53.876C119.935 54.6236 119.957 54.65 120.062 54.6016C120.124 54.5752 120.392 54.4521 120.664 54.3246L121.157 54.0959L120.937 53.2692C120.818 52.8163 120.708 52.4029 120.695 52.3501C120.677 52.2754 120.717 52.2226 120.906 52.0907C121.033 51.9984 121.24 51.8225 121.368 51.7037L121.596 51.4883L122.458 51.8928C122.928 52.1171 123.324 52.293 123.332 52.2842C123.394 52.2138 124.027 51.3036 124.04 51.264C124.049 51.2332 123.763 50.9034 123.407 50.5296C122.827 49.9272 122.757 49.8392 122.801 49.7601C122.827 49.7117 122.919 49.4655 123.012 49.2104L123.174 48.7487L123.715 48.7003C124.014 48.6695 124.44 48.6343 124.66 48.6168L125.06 48.586L125.113 48.0539C125.139 47.7593 125.161 47.4558 125.161 47.3855V47.2536L124.26 47.0117C123.482 46.805 123.354 46.7611 123.341 46.6819C123.332 46.6335 123.293 46.3961 123.258 46.1542C123.218 45.9124 123.179 45.6837 123.161 45.6485C123.143 45.6001 123.354 45.433 123.926 45.0373L124.713 44.4964L124.44 43.9071C124.273 43.5422 124.146 43.3223 124.106 43.3179C124.071 43.3179 123.671 43.419 123.218 43.5378C122.379 43.762 122.26 43.784 122.26 43.7225C122.26 43.7005 122.102 43.4938 121.908 43.2563L121.552 42.8298L121.93 42.0295C122.141 41.5897 122.321 41.2071 122.335 41.1808C122.343 41.15 122.11 40.9565 121.811 40.7498L121.275 40.3716L120.607 41.0356L119.939 41.704L119.548 41.5457C119.337 41.4622 119.077 41.3698 118.981 41.3435C118.77 41.2863 118.792 41.3742 118.695 40.099L118.642 39.4086L118.462 39.3822C118.286 39.3602 117.403 39.2723 117.341 39.2723C117.328 39.2723 117.227 39.5933 117.121 39.9847ZM117.952 42.5923C119.666 42.8518 121.113 44.0611 121.666 45.6969C121.829 46.1762 121.908 46.6599 121.908 47.2096C121.908 48.2914 121.565 49.272 120.897 50.1031C120.251 50.9078 119.416 51.4531 118.409 51.7213C117.908 51.8576 116.88 51.8884 116.37 51.7829C114.598 51.4223 113.218 50.1427 112.743 48.4145C112.585 47.8516 112.545 46.9457 112.651 46.3829C112.84 45.3891 113.297 44.5448 114.031 43.8368C115.086 42.821 116.506 42.3681 117.952 42.5923Z" fill="#BBC4CB"/>
<path d="M90.9888 43.9643C90.9756 44.0083 90.8174 44.5448 90.6328 45.1604C90.4526 45.7717 90.3031 46.2774 90.3031 46.2862C90.3031 46.2906 90.158 46.3082 89.9866 46.3257C89.8108 46.3433 89.4503 46.4005 89.1822 46.4577C88.9185 46.5148 88.6987 46.5588 88.6943 46.5544C88.6899 46.5544 88.3866 46.1147 88.0173 45.5826C87.6525 45.0505 87.336 44.5976 87.3184 44.58C87.2921 44.5536 85.7624 45.2088 85.692 45.2748C85.6832 45.288 85.8107 45.8288 85.9733 46.4884C86.2327 47.5174 86.2635 47.6889 86.2063 47.7197C86.0876 47.7857 85.6129 48.1507 85.3711 48.3617C85.2437 48.4761 85.1074 48.5948 85.0678 48.6256C85.0063 48.674 84.8393 48.6124 83.8898 48.177C83.2832 47.9 82.7689 47.6713 82.7469 47.6713C82.7161 47.6713 81.837 48.8235 81.7183 49.0213C81.6963 49.0609 81.9557 49.3424 82.5623 49.936L83.437 50.7979L83.292 51.1145C83.2129 51.2904 83.081 51.6202 83.0019 51.8489C82.9227 52.0775 82.8568 52.271 82.8524 52.2798C82.8436 52.2886 82.281 52.3414 81.5952 52.4029C80.9095 52.4645 80.3337 52.5305 80.3205 52.5437C80.2941 52.5744 80.0919 54.2279 80.1139 54.2455C80.1227 54.2499 80.6721 54.3906 81.3359 54.5621L82.5447 54.8699L82.5755 55.1953C82.6062 55.4987 82.7117 56.1056 82.7689 56.3166C82.7909 56.4002 82.6634 56.5013 81.7667 57.1038C81.204 57.4863 80.7249 57.8117 80.7073 57.8293C80.6765 57.8557 81.2963 59.2893 81.3755 59.3772C81.3886 59.3948 81.9557 59.2629 82.6326 59.0826C83.3052 58.9023 83.859 58.7572 83.8634 58.766C83.9293 58.8715 84.47 59.5443 84.6371 59.729L84.8612 59.9797L84.2986 61.0834L83.7315 62.1916L83.8678 62.2971C83.9425 62.3543 84.2634 62.5829 84.5799 62.7984L85.1557 63.1942L86.0657 62.3279C86.5624 61.8486 87.0063 61.4616 87.0459 61.4616C87.0855 61.466 87.2657 61.5319 87.4459 61.6111C87.6261 61.6859 87.9338 61.7958 88.1272 61.853L88.4789 61.9541L88.5053 62.174C88.5228 62.2927 88.558 62.8292 88.5888 63.3613C88.6196 63.8977 88.6591 64.3551 88.6767 64.3815C88.7075 64.4342 90.3734 64.5925 90.4174 64.5486C90.4306 64.5354 90.5361 64.188 90.6591 63.7834C91.1207 62.2135 91.1339 62.1872 91.2394 62.1652C91.2921 62.1564 91.5119 62.1212 91.7229 62.0948C91.9383 62.064 92.2504 62.0069 92.4174 61.9629L92.7251 61.8881L93.024 62.3103C93.1867 62.5433 93.5032 62.9963 93.7273 63.3173C94.0614 63.7966 94.1493 63.8977 94.2197 63.8758C94.3296 63.8406 95.7142 63.203 95.745 63.1766C95.7581 63.1634 95.6351 62.6313 95.4724 61.9981C95.3142 61.3604 95.1823 60.8284 95.1823 60.8152C95.1823 60.7976 95.3362 60.6701 95.5252 60.5337C95.7098 60.393 95.9911 60.1644 96.1494 60.0236L96.4351 59.773L96.8747 59.9709C97.1164 60.0808 97.6263 60.3183 98.0087 60.4942L98.7033 60.8152L99.2307 60.1072L99.7582 59.3948L98.8835 58.5153L98.0043 57.6315L98.1758 57.2797C98.2681 57.0862 98.3956 56.7652 98.4615 56.5629C98.5274 56.365 98.5934 56.1891 98.611 56.1803C98.6285 56.1715 99.2 56.11 99.8857 56.0484C100.571 55.9868 101.138 55.9297 101.143 55.9253C101.152 55.9121 101.314 54.3862 101.314 54.2938C101.314 54.2191 101.156 54.1707 100.105 53.8981L98.8967 53.5858L98.8439 53.1329C98.8175 52.8823 98.7604 52.5393 98.7252 52.3766C98.6857 52.2095 98.6549 52.0643 98.6549 52.0512C98.6549 52.0424 99.1296 51.7126 99.7099 51.3212C100.29 50.9342 100.765 50.6088 100.765 50.6C100.765 50.5956 100.607 50.2438 100.413 49.8217C100.136 49.2104 100.048 49.0609 99.9868 49.0697C99.9428 49.0785 99.3846 49.2236 98.7472 49.3907C98.1098 49.5622 97.5868 49.6941 97.578 49.6854C97.5692 49.6766 97.4769 49.549 97.367 49.3995C97.2571 49.2544 97.0329 48.9906 96.8703 48.8191L96.5757 48.5025L97.134 47.4119C97.4373 46.8095 97.6879 46.2994 97.6879 46.273C97.6879 46.229 96.356 45.2967 96.29 45.2967C96.2549 45.2967 95.6702 45.842 94.6724 46.8051L94.4438 47.0205L93.9779 46.8402C93.7229 46.7391 93.3845 46.6248 93.2306 46.5852L92.9493 46.5104L92.9273 46.2642C92.9097 46.1323 92.8746 45.5914 92.8482 45.0681C92.8174 44.5404 92.7823 44.0919 92.7647 44.0699C92.7515 44.0435 92.3735 43.9951 91.9295 43.9599C90.9405 43.8764 91.0152 43.872 90.9888 43.9643ZM92.2416 48.2782C94.646 48.8454 96.3648 50.5516 96.8571 52.8647C96.9845 53.4583 96.9977 54.4873 96.8834 55.0854C96.4043 57.6578 94.3823 59.6806 91.7757 60.1995C89.7712 60.5953 87.6657 59.9929 86.2503 58.6121C85.7492 58.124 85.3843 57.6139 85.0678 56.9718C84.7733 56.3694 84.6239 55.8813 84.5272 55.2217C84.2502 53.3572 84.9316 51.4047 86.3514 50.002C87.2569 49.1093 88.5097 48.4629 89.7976 48.221C90.3163 48.1287 91.7317 48.1595 92.2416 48.2782Z" fill="#BBC4CB"/>
<path d="M107.451 50.6528C107.319 51.1409 107.187 51.541 107.147 51.5718C107.108 51.6026 107.007 51.629 106.923 51.629C106.835 51.629 106.594 51.6642 106.378 51.7081L105.996 51.7873L105.464 51.0046C105.169 50.5692 104.906 50.2262 104.879 50.235C104.853 50.2482 104.58 50.3713 104.268 50.5077C103.776 50.7319 103.71 50.7715 103.736 50.8507C103.75 50.899 103.859 51.3124 103.974 51.7697L104.185 52.6008L103.939 52.7811C103.798 52.8823 103.596 53.0538 103.481 53.1593L103.27 53.3572L102.998 53.234C102.844 53.1681 102.47 52.9878 102.163 52.8339C101.855 52.68 101.583 52.5524 101.561 52.5524C101.539 52.5524 101.35 52.7943 101.139 53.0845L100.756 53.6166L101.424 54.2894L102.092 54.9578L101.969 55.2393C101.908 55.3932 101.807 55.6482 101.754 55.8065C101.666 56.066 101.644 56.0924 101.53 56.1055C101.459 56.1099 101.042 56.1407 100.602 56.1715C100.158 56.2067 99.7891 56.2419 99.7803 56.2507C99.7627 56.2682 99.622 57.5347 99.6396 57.5523C99.644 57.5567 100.053 57.6754 100.554 57.8117L101.459 58.0624L101.49 58.3526C101.503 58.5109 101.547 58.766 101.583 58.9199C101.618 59.0738 101.644 59.2145 101.644 59.2321C101.644 59.2497 101.297 59.5003 100.875 59.7862C100.453 60.072 100.106 60.327 100.106 60.3446C100.106 60.3798 100.585 61.4748 100.62 61.5187C100.624 61.5275 101.029 61.4352 101.512 61.3121C101.991 61.1845 102.405 61.0834 102.426 61.0834C102.448 61.0834 102.554 61.1977 102.659 61.334C102.765 61.4748 102.936 61.6814 103.037 61.7914L103.227 61.9937L102.813 62.8555L102.4 63.713L102.91 64.078C103.187 64.2803 103.437 64.4562 103.459 64.465C103.481 64.4738 103.798 64.1836 104.167 63.8186L104.831 63.1546L105.029 63.2425C105.139 63.2953 105.385 63.392 105.578 63.4624C105.794 63.5371 105.939 63.6163 105.961 63.6647C105.974 63.7086 106.013 64.1352 106.044 64.6101C106.075 65.0894 106.11 65.4808 106.123 65.4808C106.136 65.4808 106.409 65.5116 106.721 65.5468C107.038 65.5819 107.323 65.6127 107.363 65.6127C107.411 65.6127 107.486 65.406 107.666 64.764C107.794 64.3023 107.917 63.8845 107.939 63.8406C107.965 63.7922 108.031 63.7658 108.141 63.7658C108.229 63.7658 108.493 63.7262 108.721 63.6823C108.95 63.6339 109.139 63.6031 109.143 63.6075C109.143 63.6075 109.376 63.9549 109.662 64.3727C109.948 64.7948 110.172 65.1422 110.163 65.151C110.154 65.1598 109.868 65.0411 109.526 64.8827C109.178 64.7288 108.893 64.6013 108.884 64.6013C108.853 64.6013 108.15 65.6479 108.15 65.6875C108.15 65.7051 108.449 66.0085 108.813 66.3559C109.275 66.8 109.468 67.0111 109.451 67.0595C109.438 67.099 109.35 67.3585 109.253 67.6355C109.121 68.0093 109.055 68.1456 108.998 68.1544C108.954 68.1588 108.536 68.2028 108.071 68.2468C107.6 68.2951 107.213 68.3391 107.205 68.3479C107.178 68.3743 107.086 69.6187 107.108 69.6407C107.121 69.6539 107.53 69.7683 108.022 69.8914L108.91 70.1244L109.011 70.6477C109.064 70.938 109.121 71.2062 109.134 71.2414C109.152 71.2898 108.945 71.4613 108.391 71.8526C107.969 72.1516 107.622 72.4155 107.622 72.4331C107.622 72.4507 107.736 72.7057 107.882 72.9915C108.022 73.2818 108.145 73.5412 108.154 73.5676C108.167 73.5984 108.506 73.5192 109.095 73.3565C109.6 73.2114 110.018 73.0971 110.018 73.1015C110.027 73.1411 110.409 73.5984 110.58 73.7743L110.796 74.0029L110.4 74.8736L110.005 75.7443L110.537 76.1093C110.831 76.3116 111.082 76.4743 111.099 76.4743C111.117 76.4743 111.42 76.1753 111.776 75.8059C112.396 75.1727 112.427 75.1419 112.541 75.1858C112.603 75.2122 112.853 75.3002 113.095 75.3793C113.337 75.4585 113.539 75.5288 113.548 75.5332C113.556 75.5376 113.605 75.9642 113.657 76.4831L113.754 77.4197L114.04 77.4461C114.198 77.4637 114.493 77.4857 114.699 77.5033L115.073 77.5341L115.2 77.0372C115.266 76.7645 115.376 76.3512 115.433 76.1137L115.548 75.6915L115.89 75.6388C116.079 75.6124 116.339 75.564 116.466 75.5288C116.594 75.4981 116.712 75.4805 116.73 75.4893C116.743 75.4981 117.003 75.8455 117.297 76.2588C117.592 76.6678 117.847 76.9976 117.864 76.9932C118.229 76.8481 119.007 76.4435 119.007 76.4039C119.007 76.3687 118.897 75.9554 118.761 75.4805C118.629 75.0056 118.524 74.6142 118.532 74.6054C118.541 74.601 118.664 74.4999 118.809 74.3855C118.954 74.2712 119.156 74.0953 119.258 74.0029L119.438 73.8271L120.269 74.2052C120.721 74.4119 121.117 74.5834 121.139 74.5834C121.165 74.5834 121.354 74.3415 121.557 74.0469L121.926 73.5104L121.24 72.8464L120.554 72.1868L120.66 71.945C120.717 71.813 120.805 71.5624 120.858 71.3953C120.906 71.2238 120.959 71.0787 120.968 71.0699C120.976 71.0611 121.403 71.0127 121.917 70.9599L122.853 70.8676L122.902 70.23C122.928 69.8782 122.941 69.5792 122.924 69.5616C122.91 69.5484 122.502 69.4341 122.022 69.3109C121.539 69.1878 121.139 69.0779 121.13 69.0691C121.121 69.0603 121.095 68.9284 121.073 68.7744C121.047 68.6205 120.998 68.3567 120.959 68.194C120.919 68.0313 120.893 67.8906 120.902 67.8818C120.91 67.8774 121.258 67.6267 121.675 67.3321L122.431 66.7956L122.33 66.567C122.04 65.9249 121.882 65.6171 121.838 65.6127C121.811 65.6127 121.398 65.7227 120.915 65.859L120.04 66.1008L119.961 65.9997C119.917 65.9425 119.746 65.7446 119.587 65.5555C119.425 65.3665 119.288 65.195 119.28 65.1774C119.275 65.1598 119.438 64.7728 119.644 64.3199C119.851 63.8669 120.018 63.48 120.018 63.4668C120.014 63.4492 119.772 63.2733 119.477 63.071L118.941 62.706L118.273 63.3876L117.609 64.0692L117.301 63.9417C117.13 63.8713 116.875 63.7834 116.73 63.7438L116.471 63.6691L116.383 62.75C116.334 62.2443 116.282 61.8178 116.264 61.8002C116.225 61.7562 115.016 61.677 114.981 61.7122C114.963 61.7254 114.849 62.1432 114.721 62.6313L114.493 63.524L114.233 63.5547C114.093 63.5679 113.838 63.6119 113.675 63.6515C113.508 63.6911 113.359 63.7218 113.337 63.7218C113.301 63.7218 112.238 62.2619 112.238 62.2135C112.238 62.2003 112.537 62.3367 112.901 62.5169C113.266 62.6972 113.57 62.8424 113.578 62.8424C113.583 62.8424 113.763 62.6049 113.974 62.3147L114.356 61.787L113.701 61.0966L113.046 60.4106L113.209 60.0104C113.297 59.7906 113.385 59.5443 113.403 59.4652C113.42 59.3816 113.455 59.3112 113.482 59.3025C113.512 59.2893 113.939 59.2541 114.431 59.2145C114.928 59.1793 115.337 59.1397 115.345 59.1354C115.372 59.109 115.495 57.8601 115.473 57.8381C115.46 57.8249 115.047 57.7018 114.559 57.5655L113.666 57.3148L113.653 57.1653C113.64 57.007 113.53 56.3738 113.486 56.2199C113.464 56.1451 113.578 56.0528 114.255 55.5954L115.042 55.059L114.778 54.4653C114.629 54.1399 114.488 53.8717 114.457 53.8717C114.427 53.8717 114.022 53.9684 113.552 54.0915C113.082 54.2103 112.686 54.3114 112.673 54.3114C112.66 54.3114 112.585 54.2235 112.506 54.1135C112.427 54.0036 112.255 53.7925 112.128 53.6474L111.895 53.3792L112.286 52.57C112.501 52.1259 112.682 51.7389 112.686 51.7125C112.699 51.6598 111.728 50.9254 111.644 50.9254C111.622 50.9254 111.315 51.2112 110.963 51.563C110.611 51.9148 110.299 52.2007 110.268 52.2007C110.238 52.2007 110.141 52.1655 110.049 52.1171C109.961 52.0731 109.723 51.9808 109.53 51.9148L109.169 51.7961L109.143 51.5235C109.13 51.3783 109.095 50.9562 109.068 50.5956C109.042 50.2306 109.007 49.9228 108.994 49.9096C108.963 49.8832 107.969 49.7821 107.776 49.7821C107.701 49.7821 107.657 49.892 107.451 50.6528ZM108.374 53.1021C110.321 53.4407 111.851 54.993 112.172 56.9542C112.532 59.1881 111.222 61.3736 109.068 62.108C106.734 62.9127 104.167 61.7298 103.227 59.4256C102.866 58.5285 102.8 57.4072 103.055 56.4661C103.165 56.0748 103.459 55.4283 103.697 55.0722C104.211 54.2894 105.178 53.5595 106.097 53.256C106.765 53.0362 107.666 52.9746 108.374 53.1021ZM112.066 62.1168L112.198 62.1871L111.613 62.473C111.293 62.6313 111.024 62.7676 111.02 62.772C111.016 62.7764 111.126 63.1854 111.266 63.6867L111.521 64.5969L111.187 64.8608C111.002 65.0059 110.796 65.1818 110.726 65.2565L110.602 65.3884L110.409 65.2917C110.304 65.2433 110.216 65.1906 110.216 65.1774C110.216 65.1598 110.484 65.0323 110.809 64.8915C111.134 64.7508 111.402 64.6233 111.402 64.6145C111.402 64.6013 111.306 64.2099 111.183 63.7394C111.064 63.2689 110.963 62.8599 110.963 62.8248C110.963 62.794 111.095 62.6665 111.262 62.5433C111.424 62.4246 111.613 62.2619 111.684 62.1871C111.833 62.0332 111.882 62.0244 112.066 62.1168ZM116.26 65.1026C117.033 65.3313 117.666 65.6875 118.211 66.2064C119.284 67.2266 119.811 68.6117 119.666 70.0409C119.499 71.6855 118.554 73.0531 117.095 73.7699C116.255 74.1788 115.407 74.3372 114.554 74.2448C111.899 73.9414 110.031 71.58 110.396 68.9723C110.638 67.2266 111.855 65.7402 113.499 65.1906C114.101 64.9883 114.356 64.9531 115.139 64.9707C115.767 64.9839 115.917 65.0015 116.26 65.1026Z" fill="#BBC4CB"/>
<path d="M128.15 58.1283L127.917 59.0518L127.583 59.1046C127.398 59.1309 127.135 59.1837 126.99 59.2189C126.849 59.2541 126.73 59.2804 126.721 59.2717C126.717 59.2629 126.48 58.9331 126.194 58.5329C125.913 58.1327 125.662 57.7897 125.645 57.7721C125.596 57.7194 124.409 58.2954 124.436 58.3658C124.48 58.4889 124.937 60.1335 124.928 60.1423C124.616 60.3842 124.352 60.6041 124.207 60.7448L124.023 60.9207L123.183 60.5381C122.721 60.3314 122.33 60.1599 122.308 60.1599C122.286 60.1599 122.106 60.4018 121.908 60.692L121.543 61.2285L122.216 61.8925L122.884 62.5565L122.809 62.7544C122.765 62.8643 122.682 63.1106 122.62 63.3041C122.559 63.4976 122.502 63.6647 122.493 63.6734C122.484 63.6866 122.058 63.735 121.543 63.7834L120.611 63.8757L120.581 64.2275C120.563 64.421 120.541 64.72 120.524 64.8915L120.497 65.2037L121.42 65.4368L122.343 65.6699L122.374 65.8721C122.401 66.0612 122.484 66.5142 122.541 66.756C122.563 66.8572 122.502 66.9099 121.794 67.4112C121.372 67.7103 121.029 67.9697 121.038 67.9873C121.192 68.3655 121.587 69.1306 121.631 69.1306C121.666 69.1306 122.08 69.0207 122.559 68.8844L123.425 68.6425L123.535 68.7832C123.596 68.8624 123.772 69.0735 123.926 69.2537L124.203 69.5748L123.825 70.4015C123.618 70.8588 123.447 71.2458 123.447 71.2678C123.447 71.2897 123.688 71.4744 123.987 71.6767L124.524 72.0417L125.187 71.3513C125.825 70.6873 125.856 70.6609 125.957 70.7181C126.014 70.7489 126.269 70.8456 126.524 70.9336L126.985 71.0919L127.073 71.9933C127.121 72.4858 127.174 72.9124 127.192 72.9388C127.214 72.9695 127.456 73.0003 127.785 73.0179C128.097 73.0355 128.379 73.0575 128.418 73.0707C128.475 73.0839 128.528 72.9212 128.722 72.1648C128.928 71.3601 128.968 71.237 129.047 71.2238C129.1 71.215 129.319 71.1754 129.535 71.1358C129.755 71.0963 129.979 71.0567 130.04 71.0391C130.146 71.0171 130.194 71.0743 130.678 71.7515C130.968 72.156 131.218 72.5034 131.231 72.5254C131.245 72.5474 131.522 72.4331 131.847 72.2748C132.291 72.0549 132.431 71.9669 132.423 71.9098C132.414 71.8702 132.3 71.4568 132.168 70.9995L131.935 70.164L132.075 70.0541C132.15 69.9925 132.357 69.821 132.533 69.6671C132.708 69.5176 132.862 69.3945 132.875 69.3945C132.889 69.3945 133.275 69.566 133.737 69.7726C134.199 69.9837 134.59 70.1332 134.607 70.1156C134.625 70.0937 134.796 69.8518 134.985 69.5748L135.328 69.0779L134.656 68.4051L133.983 67.7322L134.141 67.2969C134.229 67.0594 134.317 66.8044 134.339 66.734L134.379 66.6021L135.306 66.5098C135.821 66.457 136.247 66.4086 136.256 66.3998C136.278 66.3735 136.374 65.1202 136.357 65.1026C136.348 65.0894 135.935 64.9795 135.434 64.852L134.533 64.6233L134.48 64.2847C134.453 64.0956 134.401 63.8274 134.366 63.691C134.33 63.5547 134.317 63.4316 134.335 63.414C134.352 63.3964 134.686 63.159 135.073 62.8863C135.46 62.6137 135.794 62.3762 135.812 62.3586C135.869 62.3103 135.289 61.123 135.218 61.1493C135.188 61.1625 134.805 61.2725 134.37 61.3912C133.935 61.5143 133.548 61.6243 133.508 61.6331C133.46 61.6506 133.399 61.6023 133.328 61.4923C133.267 61.4 133.091 61.1889 132.941 61.0262L132.669 60.7272L133.047 59.8961C133.253 59.4344 133.425 59.043 133.425 59.021C133.425 58.999 133.183 58.8187 132.893 58.6208L132.361 58.2603L131.689 58.9287L131.016 59.6015L130.823 59.5223C130.722 59.4783 130.467 59.3904 130.26 59.3244L129.886 59.2057L129.798 58.2646L129.711 57.3236L129.337 57.2928C129.13 57.2796 128.831 57.2532 128.673 57.2357L128.383 57.2093L128.15 58.1283ZM129.403 60.5777C130.423 60.7888 131.434 61.4176 132.089 62.2399C132.418 62.6533 132.805 63.4052 132.937 63.8977C133.385 65.5599 132.919 67.2837 131.693 68.4842C129.882 70.2564 126.941 70.2432 125.161 68.4622C124.238 67.5388 123.79 66.4658 123.781 65.173C123.772 63.9857 124.137 63.0006 124.919 62.0772C125.601 61.2769 126.735 60.6656 127.82 60.5161C128.229 60.459 128.968 60.4897 129.403 60.5777Z" fill="#BBC4CB"/>
<path d="M0.96673 73.8674V68.1252H5.65423V73.0471C5.65423 80.3127 8.70111 85.8596 14.7949 89.6877C17.8417 91.6408 20.6933 92.6174 23.3495 92.6174V97.0705C19.0527 97.0705 14.6777 95.4299 10.2245 92.1487C4.13079 87.4612 1.04486 81.3674 0.96673 73.8674ZM28.7402 97.0705V92.6174C31.9433 92.6174 35.498 91.2502 39.4042 88.5158C44.7167 84.6096 47.412 79.7268 47.4902 73.8674V14.4533H52.1777V73.8674C52.1777 82.5393 48.2324 89.1018 40.3417 93.5549C36.2792 95.8987 32.412 97.0705 28.7402 97.0705Z" fill="#F2F0ED"/>
<path d="M166.618 96.4881L182.672 26.2928H184.665L185.837 31.5663L171.305 96.4881H166.618ZM179.977 80.6678L180.915 76.2147H200.837L187.36 14.5741H192.047L209.86 96.4881H205.172L201.891 80.6678H179.977Z" fill="#F2F0ED"/>
</g>
<defs>
<linearGradient id="paint0_linear" x1="145.651" y1="33.1859" x2="68.545" y2="94.9704" gradientUnits="userSpaceOnUse">
<stop stop-color="#22598C"/>
<stop offset="0.864583" stop-color="#04121A"/>
</linearGradient>
<clipPath id="clip0">
<rect width="216" height="118" fill="white"/>
</clipPath>
</defs>
</svg>
